<svg xmlns="http://www.w3.org/2000/svg" viewBox="0 0 20 20.01"><defs><style>.cls-1{fill:#200e32;}</style></defs><title>guidance</title><g id="图层_2" data-name="图层 2"><g id="Layer_1" data-name="Layer 1"><g id="Iconly_Broken_Send" data-name="Iconly Broken Send"><g id="Send-9"><path id="Send-10" class="cls-1" d="M11.6,19.06,7.5,12.27a.77.77,0,0,1,.11-.93l5.82-5.86a.75.75,0,0,1,1.06,0h0a.75.75,0,0,1,0,1.07L9.09,12l3.8,6.28a.46.46,0,0,0,.62.16.43.43,0,0,0,.2-.26L16,10.35A.75.75,0,0,1,17,9.84h0a.77.77,0,0,1,.5.94L15.14,18.6A1.93,1.93,0,0,1,13.52,20l-.26,0A2,2,0,0,1,11.6,19.06ZM4.32,10.41.94,8.32a2,2,0,0,1,.47-3.56L17.5.08a1.94,1.94,0,0,1,1.93.5,2,2,0,0,1,.48,1.95l-1.24,4.2a.76.76,0,0,1-.89.58.74.74,0,0,1-.58-.89l0-.12,1.25-4.2a.46.46,0,0,0-.3-.57.57.57,0,0,0-.26,0L1.83,6.21a.46.46,0,0,0-.31.57.46.46,0,0,0,.2.26L5.1,9.12a.75.75,0,1,1-.78,1.29Z"/></g></g></g></g></svg>