<svg xmlns="http://www.w3.org/2000/svg" viewBox="0 0 17 19.99"><defs><style>.cls-1{fill:#200e32;}</style></defs><title>location</title><g id="图层_2" data-name="图层 2"><g id="Layer_1" data-name="Layer 1"><g id="Iconly_Broken_Location" data-name="Iconly Broken Location"><g id="Location-8"><path id="Location-9" class="cls-1" d="M7.86,19.88a24,24,0,0,1-5.7-5.3A10.59,10.59,0,0,1,0,8.51,8.51,8.51,0,0,1,8.5,0h0A8.5,8.5,0,0,1,17,8.52v.1c-.06,3.34-2.07,6.12-3.75,7.86-.48.49-1,1-1.51,1.42a.75.75,0,0,1-1-1.14,17.47,17.47,0,0,0,1.4-1.32c1.49-1.55,3.28-4,3.34-6.85a7,7,0,0,0-7-7.1H8.5a7,7,0,0,0-7,7,9.19,9.19,0,0,0,1.86,5.23,22.52,22.52,0,0,0,5.32,4.94.75.75,0,0,1-.81,1.25ZM5.26,8.61a.75.75,0,0,1,1.5,0A1.74,1.74,0,1,0,8.5,6.87a.75.75,0,0,1-.75-.74.76.76,0,0,1,.75-.75h0A3.23,3.23,0,1,1,5.27,8.61Z"/></g></g></g></g></svg>