<svg xmlns="http://www.w3.org/2000/svg" viewBox="0 0 16 20.07"><defs><style>.cls-1{fill:#200e32;}</style></defs><title>personal</title><g id="图层_2" data-name="图层 2"><g id="Layer_1" data-name="Layer 1"><g id="Iconly_Broken_Profile" data-name="Iconly Broken Profile"><g id="Profile-8"><path id="Profile-9" class="cls-1" d="M7,20.05a.71.71,0,0,1-.7-.73h0a.73.73,0,0,1,.74-.7H8c4.35,0,6.56-.75,6.56-2.23S12.35,14.14,8,14.14s-6.55.75-6.55,2.24c0,.48.17,1.18,1.67,1.69a.72.72,0,1,1-.46,1.36C.46,18.69,0,17.37,0,16.38c0-3.29,4.57-3.67,8-3.67,2,0,8,0,8,3.69,0,3.29-4.56,3.67-8,3.67ZM2.61,5.42A5.39,5.39,0,1,1,8,10.77H8A5.38,5.38,0,0,1,2.61,5.42Zm1.45,0A3.94,3.94,0,1,0,8,1.51H8A3.92,3.92,0,0,0,4.06,5.42Z"/></g></g></g></g></svg>